<?xml version="1.0" standalone="no"?>
<!DOCTYPE svg PUBLIC "-//W3C//DTD SVG 20010904//EN"
 "http://www.w3.org/TR/2001/REC-SVG-20010904/DTD/svg10.dtd">
<svg version="1.0" xmlns="http://www.w3.org/2000/svg"
 width="477.000000pt" height="477.000000pt" viewBox="0 0 477.000000 477.000000"
 preserveAspectRatio="xMidYMid meet">
<metadata>
Created by potrace 1.14, written by Peter Selinger 2001-2017
</metadata>
<g transform="translate(0.000000,477.000000) scale(0.100000,-0.100000)"
fill="#000000" stroke="none">
<path d="M1659 3766 c-2 -2 -44 -7 -94 -10 -49 -4 -97 -9 -105 -11 -8 -2 -33
-7 -55 -10 -23 -3 -52 -8 -65 -10 -14 -3 -41 -8 -60 -11 -133 -21 -364 -94
-521 -163 -629 -280 -901 -767 -683 -1218 57 -116 181 -268 290 -353 62 -48
134 -100 140 -100 3 0 18 -8 32 -18 158 -110 540 -249 786 -288 21 -3 47 -7
57 -9 11 -2 65 -9 122 -16 l102 -12 55 -53 c154 -148 409 -319 657 -442 l62
-30 -10 25 c-5 14 -13 31 -17 37 -4 6 -7 13 -7 16 -1 3 -8 22 -17 42 -35 79
-59 206 -60 313 -1 58 2 108 5 112 9 8 214 9 223 0 8 -8 8 -167 0 -224 -11
-71 -35 -153 -67 -227 -17 -39 -33 -77 -36 -84 -6 -14 227 102 277 138 16 11
31 20 34 20 6 0 146 90 156 100 3 3 39 30 80 61 85 64 105 81 175 148 47 46
54 49 120 55 39 4 79 9 90 11 11 3 38 7 60 10 78 11 111 17 225 45 125 31 299
87 314 101 6 5 16 9 22 9 21 0 164 69 259 125 300 176 494 409 550 661 14 58
13 220 -1 284 -85 400 -530 749 -1143 897 -120 29 -134 32 -181 39 -19 2 -46
7 -60 9 -143 25 -280 33 -510 30 -124 -2 -241 -6 -260 -9 -19 -3 -55 -8 -80
-11 -25 -3 -65 -8 -90 -12 -25 -4 -48 -6 -51 -6 -3 1 -43 7 -90 13 -46 6 -100
13 -119 16 -41 6 -506 15 -511 10z"/>
</g>
</svg>
