<svg xmlns="http://www.w3.org/2000/svg" version="1.1" xmlns:xlink="http://www.w3.org/1999/xlink" xmlns:svgjs="http://svgjs.com/svgjs" width="1440" height="560" preserveAspectRatio="none" viewBox="0 0 1440 560"><g mask="url(&quot;#SvgjsMask2624&quot;)" fill="none"><rect width="1440" height="560" x="0" y="0" fill="url(#SvgjsLinearGradient2625)"></rect><path d="M803.41 199.37L830.69 199.37L830.69 226.65L803.41 226.65z" fill="rgba(66, 135, 209, 1)"></path><path d="M1254.21 557.16a48.41 48.41 0 1 0 32.91-91.06z" stroke="rgba(104, 124, 209, 1)"></path><path d="M903.96 159.3 a29.48 29.48 0 1 0 58.96 0 a29.48 29.48 0 1 0 -58.96 0z" stroke="rgba(104, 124, 209, 1)"></path><path d="M50.68 212.28 a23.25 23.25 0 1 0 46.5 0 a23.25 23.25 0 1 0 -46.5 0z" stroke="rgba(66, 135, 209, 1)"></path><path d="M912.78 123.92a25.81 25.81 0 1 0 46.16 23.11z" stroke="rgba(104, 124, 209, 1)"></path><path d="M802.84 438.59L822.89 438.59L822.89 480.63L802.84 480.63z" stroke="rgba(15, 66, 147, 1)"></path><path d="M1084.68 167.51 a16.32 16.32 0 1 0 32.64 0 a16.32 16.32 0 1 0 -32.64 0z" fill="rgba(66, 135, 209, 1)"></path><path d="M1344.63 211.96 a28.53 28.53 0 1 0 57.06 0 a28.53 28.53 0 1 0 -57.06 0z" fill="rgba(15, 66, 147, 1)"></path><path d="M1275.76 0.72a50.02 50.02 0 1 0 49.39 87z" stroke="rgba(15, 66, 147, 1)"></path><path d="M58.62 24.92L74.43 24.92L74.43 79.05L58.62 79.05z" stroke="rgba(104, 124, 209, 1)"></path><path d="M1270.82 366.2 a13.21 13.21 0 1 0 26.42 0 a13.21 13.21 0 1 0 -26.42 0z" fill="rgba(15, 66, 147, 1)"></path><path d="M584.45 470.23 a21.51 21.51 0 1 0 43.02 0 a21.51 21.51 0 1 0 -43.02 0z" fill="rgba(15, 66, 147, 1)"></path><path d="M30.62 129.07a8.62 8.62 0 1 0-17.21 0.95z" stroke="rgba(15, 66, 147, 1)"></path><path d="M826.2 457.8 a36.39 36.39 0 1 0 72.78 0 a36.39 36.39 0 1 0 -72.78 0z" stroke="rgba(104, 124, 209, 1)"></path><path d="M-44.95 42.47 a47.02 47.02 0 1 0 94.04 0 a47.02 47.02 0 1 0 -94.04 0z" stroke="rgba(104, 124, 209, 1)"></path><path d="M377.36 323.1 a36.62 36.62 0 1 0 73.24 0 a36.62 36.62 0 1 0 -73.24 0z" fill="rgba(66, 135, 209, 1)"></path><path d="M583.1 532.81L590.87 532.81L590.87 540.58L583.1 540.58z" fill="rgba(15, 66, 147, 1)"></path><path d="M33.55 397.27L85.66 397.27L85.66 451.18L33.55 451.18z" stroke="rgba(104, 124, 209, 1)"></path><path d="M1326.83 152.2 a13.82 13.82 0 1 0 27.64 0 a13.82 13.82 0 1 0 -27.64 0z" fill="rgba(66, 135, 209, 1)"></path><path d="M1376.01 294.44L1425.56 294.44L1425.56 343.99L1376.01 343.99z" stroke="rgba(104, 124, 209, 1)"></path><path d="M-28.04 345.45 a40.73 40.73 0 1 0 81.46 0 a40.73 40.73 0 1 0 -81.46 0z" fill="rgba(66, 135, 209, 1)"></path><path d="M684.67 280.86a5.9 5.9 0 1 0 8.74-7.94z" fill="rgba(66, 135, 209, 1)"></path><path d="M822.55 310.59 a46.13 46.13 0 1 0 92.26 0 a46.13 46.13 0 1 0 -92.26 0z" stroke="rgba(15, 66, 147, 1)"></path><path d="M483.57 199.26L531.5 199.26L531.5 247.19L483.57 247.19z" fill="rgba(15, 66, 147, 1)"></path><path d="M155.32 559.53L163.36 559.53L163.36 567.57L155.32 567.57z" stroke="rgba(104, 124, 209, 1)"></path><path d="M641.36 194.36L652.75 194.36L652.75 201.9L641.36 201.9z" fill="rgba(66, 135, 209, 1)"></path><path d="M1033.37 404.29 a54.06 54.06 0 1 0 108.12 0 a54.06 54.06 0 1 0 -108.12 0z" fill="rgba(104, 124, 209, 1)"></path><path d="M-9.88 250.48 a17.9 17.9 0 1 0 35.8 0 a17.9 17.9 0 1 0 -35.8 0z" stroke="rgba(66, 135, 209, 1)"></path><path d="M1279.11 395.94L1313.57 395.94L1313.57 426.4L1279.11 426.4z" fill="rgba(66, 135, 209, 1)"></path><path d="M78.67 121.32 a34.76 34.76 0 1 0 69.52 0 a34.76 34.76 0 1 0 -69.52 0z" fill="rgba(15, 66, 147, 1)"></path><path d="M312.1 236.17L359.69 236.17L359.69 283.76L312.1 283.76z" fill="rgba(66, 135, 209, 1)"></path><path d="M839.05 327.41a33.4 33.4 0 1 0-20.65 63.53z" stroke="rgba(104, 124, 209, 1)"></path><path d="M638.17 25.81L688.09 25.81L688.09 75.73L638.17 75.73z" stroke="rgba(66, 135, 209, 1)"></path></g><defs><mask id="SvgjsMask2624"><rect width="1440" height="560" fill="#ffffff"></rect></mask><linearGradient x1="15.28%" y1="139.29%" x2="84.72%" y2="-39.29%" gradientUnits="userSpaceOnUse" id="SvgjsLinearGradient2625"><stop stop-color="#0e2a47" offset="0"></stop><stop stop-color="rgba(0, 94, 165, 1)" offset="0.55"></stop><stop stop-color="rgba(0, 94, 165, 1)" offset="0.76"></stop><stop stop-color="rgba(0, 94, 165, 1)" offset="0.96"></stop></linearGradient></defs></svg>